<?xml version="1.0" encoding="UTF-8" standalone="no"?>
<svg
   xmlns:dc="http://purl.org/dc/elements/1.1/"
   xmlns:cc="http://creativecommons.org/ns#"
   xmlns:rdf="http://www.w3.org/1999/02/22-rdf-syntax-ns#"
   xmlns:svg="http://www.w3.org/2000/svg"
   xmlns="http://www.w3.org/2000/svg"
   xmlns:sodipodi="http://sodipodi.sourceforge.net/DTD/sodipodi-0.dtd"
   xmlns:inkscape="http://www.inkscape.org/namespaces/inkscape"
   width="305.35287"
   height="315.35287"
   viewBox="0 0 305.35286 315.3529"
   version="1.1"
   id="svg2216"
   inkscape:version="1.0.1 (3bc2e813f5, 2020-09-07)"
   sodipodi:docname="scrabble-tile-letter-m-eeddbb.svg">
  <defs
     id="defs2210" />
  <sodipodi:namedview
     id="base"
     pagecolor="#ffffff"
     bordercolor="#666666"
     borderopacity="1.0"
     inkscape:pageopacity="0.0"
     inkscape:pageshadow="2"
     inkscape:zoom="0.98994949"
     inkscape:cx="379.7782"
     inkscape:cy="199.8342"
     inkscape:document-units="px"
     inkscape:current-layer="layer1"
     showgrid="false"
     units="px"
     inkscape:window-width="1366"
     inkscape:window-height="705"
     inkscape:window-x="-8"
     inkscape:window-y="-8"
     inkscape:window-maximized="1"
     fit-margin-top="10"
     fit-margin-left="10"
     fit-margin-bottom="20"
     fit-margin-right="10"
     inkscape:showpageshadow="false"
     inkscape:document-rotation="0"
     lock-margins="false" />
  <metadata
     id="metadata2213">
    <rdf:RDF>
      <cc:Work
         rdf:about="">
        <dc:format>image/svg+xml</dc:format>
        <dc:type
           rdf:resource="http://purl.org/dc/dcmitype/StillImage" />
        <dc:title />
      </cc:Work>
    </rdf:RDF>
  </metadata>
  <g
     inkscape:label="Layer 1"
     inkscape:groupmode="layer"
     id="layer1"
     transform="translate(90.792198,-23.029976)">
    <rect
       ry="9.5535717"
       rx="9.5535717"
       y="33.779976"
       x="-80.042198"
       height="283.85287"
       width="283.85287"
       id="rect842"
       style="fill:#eeddbb;fill-opacity:1;stroke:#111111;stroke-width:1.5;stroke-linecap:round;stroke-linejoin:round;stroke-miterlimit:4;stroke-dasharray:none;stroke-dashoffset:0;stroke-opacity:1;paint-order:stroke fill markers" />
    <g
       id="text828"
       style="font-style:normal;font-variant:normal;font-weight:bold;font-stretch:normal;font-size:71.8833px;line-height:1.25;font-family:'Open Sans';-inkscape-font-specification:'Open Sans, Bold';font-variant-ligatures:normal;font-variant-caps:normal;font-variant-numeric:normal;font-feature-settings:normal;text-align:start;letter-spacing:0px;word-spacing:0px;writing-mode:lr-tb;text-anchor:start;fill:#000000;fill-opacity:1;stroke:none;stroke-width:0.939242"
       transform="matrix(0.93924228,0,0,1.064688,-10,-6)"
       aria-label="M">
      <path
         inkscape:connector-curvature="0"
         id="path817"
         style="font-style:normal;font-variant:normal;font-weight:600;font-stretch:normal;font-size:219.157px;font-family:'Open Sans';-inkscape-font-specification:'Open Sans Semi-Bold';stroke-width:0.939242"
         d="M 52.992702,243.57623 7.6204533,112.917 H 6.7643731 q 1.8191703,29.10672 1.8191703,54.57511 v 76.08412 H -14.637631 V 87.127581 H 21.424746 L 64.870815,211.58024 h 0.64206 L 110.24306,87.127581 h 36.16939 V 243.57623 h -24.6123 v -77.36824 q 0,-11.6641 0.53505,-30.39085 0.64206,-18.72675 1.0701,-22.68612 h -0.85608 L 75.571817,243.57623 Z" />
    </g>
    <g
       id="text836"
       style="font-style:normal;font-variant:normal;font-weight:bold;font-stretch:normal;font-size:68.3679px;line-height:1.25;font-family:'Open Sans';-inkscape-font-specification:'Open Sans, Bold';font-variant-ligatures:normal;font-variant-caps:normal;font-variant-numeric:normal;font-feature-settings:normal;text-align:start;letter-spacing:0px;word-spacing:0px;writing-mode:lr-tb;text-anchor:start;fill:#000000;fill-opacity:1;stroke:none;stroke-width:0.893309"
       transform="matrix(1.1194341,0,0,0.89330851,-10,-6)"
       aria-label="3">
      <path
         inkscape:connector-curvature="0"
         id="path820"
         style="font-style:normal;font-variant:normal;font-weight:600;font-stretch:normal;font-family:'Open Sans';-inkscape-font-specification:'Open Sans Semi-Bold';stroke-width:0.893309"
         d="m 167.34193,295.30684 q 0,4.6402 -2.704,7.74479 -2.704,3.07122 -7.61127,4.13946 v 0.26707 q 5.87537,0.73442 8.81305,3.6721 2.93768,2.9043 2.93768,7.7448 0,7.04376 -4.97403,10.88277 -4.97403,3.80564 -14.15428,3.80564 -8.11201,0 -13.68693,-2.63724 v -6.97699 q 3.10459,1.5356 6.5764,2.37017 3.47181,0.83457 6.67655,0.83457 5.67507,0 8.47922,-2.10311 2.80415,-2.10312 2.80415,-6.50964 0,-3.90578 -3.10459,-5.74183 -3.1046,-1.83605 -9.74777,-1.83605 h -4.23961 v -6.37611 h 4.30638 q 11.68396,0 11.68396,-8.07863 0,-3.13797 -2.03635,-4.84049 -2.03635,-1.70252 -6.00889,-1.70252 -2.77077,0 -5.34124,0.80118 -2.57047,0.7678 -6.07566,3.03783 l -3.83902,-5.47477 q 6.70993,-4.94065 15.58974,-4.94065 7.37759,0 11.51705,3.17136 4.13946,3.17137 4.13946,8.74629 z" />
    </g>
  </g>
<g transform="translate(10, 303.35287)">  <path
     id="path833"
     style="font-size:11px;fill:#bbbbbb"
     d="m 47.099139,1 c 0,2.785807 0,5.571615 0,8.357422 0.336589,0 0.673177,0 1.009766,0 0,-1.492839 0,-2.985677 0,-4.478516 0.734878,-0.63751 2.306024,-1.222982 2.848262,-0.08188 0.278327,0.918406 0.103034,1.896215 0.147834,2.844253 0,0.572046 0,1.144093 0,1.716139 0.336588,0 0.673177,0 1.009765,0 -0.04032,-1.586492 0.0905,-3.185124 -0.08604,-4.763334 -0.263861,-1.225268 -1.77799,-1.757192 -2.837556,-1.214394 -0.475175,0.186034 -1.286643,0.921151 -1.082273,-0.0062 0,-0.791155 0,-1.582311 0,-2.373467 -0.336584,0 -0.673195,0 -1.009763,0 z m 40.878907,0 c 0,0.866536 0,1.733073 0,2.599609 -1.267117,-0.782933 -3.219192,-0.430669 -3.852886,1.006676 -0.667723,1.336008 -0.576271,3.099777 0.360774,4.283954 0.906871,0.930935 2.547941,0.783098 3.411106,-0.125578 -0.0059,0.516749 0.258965,0.694173 0.780978,0.592761 0.450356,0.147098 0.283244,-0.323271 0.309793,-0.59998 0,-2.585814 0,-5.171628 0,-7.757442 -0.336588,0 -0.673177,0 -1.009765,0 z M 4.0815615,1.214844 c -1.270503,-0.05781 -2.818921,0.649361 -2.9887349,2.043628 -0.20654812,1.167321 0.7564776,2.214186 1.8700399,2.39622 0.9546903,0.250777 2.038458,0.16718 2.864789,0.786714 0.807458,0.95514 -0.335077,2.248639 -1.416056,2.125769 C 3.2121188,8.678893 2.013116,8.238225 1.0569583,7.53125 0.94800728,8.29909 0.89371398,9.151735 1.8828985,9.184181 3.3532105,9.640226 5.1525995,9.730388 6.4263825,8.736633 7.4106285,7.904292 7.5336745,6.057789 6.3005025,5.390254 5.1351145,4.660262 3.590645,4.994686 2.4640453,4.203468 1.7046717,3.369423 2.5975009,2.109131 3.6176791,2.16804 4.7554905,2.011058 5.9155785,2.388767 6.8503055,3.029297 6.9592325,2.289211 6.9928105,1.477595 6.0293245,1.476937 5.3965525,1.299278 4.7388495,1.210035 4.0815615,1.214844 Z m 22.2089845,0 c -1.709272,-0.09554 -3.479224,1.088445 -3.763434,2.832548 -0.432259,1.759773 -0.06573,4.017426 1.646895,4.966793 1.358741,0.736758 3.05146,0.590083 4.416527,-0.05214 0.680945,0.03217 0.625243,-2.018154 -0.120991,-1.103607 C 27.741644,8.497325 26.686445,8.667797 25.744949,8.543296 24.617107,8.4195 23.779515,7.455695 23.583414,6.374468 23.286579,5.047039 23.521074,3.377321 24.704374,2.545893 25.971075,1.760872 27.664504,2.126257 28.755674,3.052942 29.266855,3.256272 28.968358,2.14447 28.92255,1.881594 28.111496,1.465748 27.205928,1.210082 26.290546,1.214841 Z m 41.792968,0 c -1.270503,-0.05781 -2.818921,0.649361 -2.988735,2.043628 -0.206221,1.166571 0.755412,2.214135 1.868737,2.396148 0.955154,0.250725 2.038998,0.167842 2.866092,0.786786 0.803825,0.9559 -0.334598,2.248888 -1.416223,2.12578 C 67.213312,8.678851 66.014146,8.237569 65.056958,7.53125 64.952671,8.299464 64.89433,9.151633 65.884846,9.184181 67.355158,9.640226 69.154547,9.730388 70.428331,8.736633 71.412576,7.904292 71.535622,6.057789 70.30245,5.390254 69.137062,4.660262 67.592592,4.994686 66.465992,4.203468 65.706619,3.369423 66.599448,2.109131 67.619626,2.16804 68.757438,2.011058 69.917526,2.388767 70.852253,3.029297 70.96118,2.289211 70.994758,1.477595 70.031272,1.476936 69.398503,1.299278 68.7408,1.210035 68.083514,1.214844 Z m 22.837891,0.0918 c 0,0.348958 0,0.697917 0,1.046875 0.379558,0 0.759117,0 1.138675,0 0,-0.348959 0,-0.697919 0,-1.046878 -0.379558,1e-6 -0.759117,2e-6 -1.138675,3e-6 z M 37.054218,1.632815 c 0,0.57487 0,1.14974 0,1.72461 -0.890141,-0.460911 -0.977874,1.226957 -0.08956,0.84039 0.209458,0.59319 0.04113,1.317016 0.08689,1.961159 0.03983,0.871543 -0.128025,1.830592 0.318555,2.618498 0.605933,0.794843 1.91704,0.937254 2.724374,0.436826 C 40.553672,8.20257 39.57449,8.470474 38.987776,8.641231 38.033387,8.527186 38.001433,7.440683 38.063991,6.691421 c 0,-0.828133 0,-1.656266 0,-2.484399 0.694662,0 1.389323,0 2.083985,0 0.127125,-0.550494 -0.03471,-1.01834 -0.649972,-0.849609 -0.478004,0 -0.956009,0 -1.434014,0 0,-0.57487 0,-1.14974 0,-1.72461 -0.336592,5e-6 -0.673188,2e-6 -1.009778,1.2e-5 z m 35.792968,0 c 0,0.57487 0,1.14974 0,1.72461 -0.890141,-0.460911 -0.977872,1.226958 -0.08956,0.840389 0.209456,0.593191 0.04113,1.317016 0.08689,1.96116 0.03983,0.871543 -0.128025,1.830592 0.318555,2.618498 0.605932,0.794843 1.917039,0.937255 2.724373,0.436826 0.459195,-1.011729 -0.519987,-0.743824 -1.106701,-0.573067 -0.954391,-0.114044 -0.98634,-1.200549 -0.923786,-1.94981 0,-0.828133 0,-1.656266 0,-2.484399 0.694661,0 1.389323,0 2.083984,0 0.127125,-0.550494 -0.03471,-1.01834 -0.649972,-0.849609 -0.478004,0 -0.956009,0 -1.434013,0 0,-0.57487 0,-1.14974 0,-1.72461 -0.336591,5e-6 -0.673187,2e-6 -1.009776,1.2e-5 z M 18.808124,3.191409 C 18.094905,2.935351 17.239001,4.03514 16.807568,3.745844 16.924933,3.064297 15.42404,3.190079 15.784686,3.907384 c 0,1.81668 0,3.633361 0,5.450041 0.336589,0 0.673177,0 1.009766,0 0,-1.492839 0,-2.985677 0,-4.478516 0.735405,-0.637705 2.305453,-1.222485 2.849218,-0.08209 0.278696,0.901617 0.104456,1.862968 0.148831,2.794465 0,0.588713 0,1.177425 0,1.766138 0.336588,0 0.673177,0 1.009765,0 -0.04399,-1.593518 0.09877,-3.20141 -0.09401,-4.785076 -0.20719,-0.835885 -1.034297,-1.45801 -1.900131,-1.38094 z m 37.74414,0 c -1.521655,-0.106782 -2.870485,1.256511 -2.903391,2.752487 -0.187662,1.362639 0.449907,2.994629 1.887441,3.369754 1.127624,0.363449 2.364488,0.153591 3.426107,-0.321459 0,-0.367188 0,-0.734375 0,-1.101563 C 57.907373,8.60552 56.316536,9.000861 55.260559,8.083505 54.886278,7.776964 54.254723,6.45525 55.061618,6.462891 c 1.339981,0 2.679962,0 4.019943,0 C 59.160221,5.347343 58.934457,3.952653 57.79557,3.440653 57.409264,3.256935 56.977013,3.191152 56.552264,3.191409 Z m 39.789067,0 c -1.43435,-0.105366 -2.683091,1.182808 -2.741489,2.580836 -0.215182,1.416573 0.332234,3.201116 1.850159,3.631665 1.41416,0.476399 3.21103,-0.333712 3.50065,-1.869901 0.430759,-1.474988 0.0677,-3.439789 -1.4614,-4.123733 -0.36119,-0.15464 -0.75631,-0.220409 -1.14792,-0.218867 z m 16.300779,0 c -1.43435,-0.105366 -2.6831,1.182806 -2.74149,2.580836 -0.21518,1.416573 0.33223,3.201117 1.85016,3.631665 1.41416,0.476399 3.21103,-0.333712 3.50065,-1.869901 0.43076,-1.474988 0.0677,-3.439789 -1.4614,-4.123733 -0.36119,-0.15464 -0.75631,-0.220409 -1.14792,-0.218867 z m 7.2832,0 c -0.69559,-0.265373 -1.51917,0.857085 -1.9322,0.554435 0.11735,-0.681549 -1.38352,-0.555761 -1.02288,0.16154 0,1.81668 0,3.633361 0,5.450041 0.33659,0 0.67318,0 1.00977,0 0,-1.492839 0,-2.985677 0,-4.478516 0.69289,-0.640703 2.26346,-1.226266 2.74185,-0.07252 0.2374,0.922549 0.08,1.890099 0.12142,2.834903 0,0.572045 0,1.14409 0,1.716135 0.33659,0 0.67318,0 1.00977,0 -0.0184,-1.484296 0.0406,-2.969838 -0.0373,-4.453125 0.70054,-0.647981 2.28723,-1.268386 2.77851,-0.09505 0.23758,0.921564 0.0806,1.88819 0.12187,2.832036 0,0.572045 0,1.14409 0,1.716135 0.33659,0 0.67317,0 1.00976,0 -0.0368,-1.575996 0.0821,-3.161996 -0.0772,-4.731206 -0.19216,-1.116344 -1.45733,-1.724181 -2.48513,-1.365937 -0.77965,0.178711 -1.55659,1.282397 -2.09702,0.257269 -0.33141,-0.229515 -0.74,-0.337547 -1.14122,-0.326142 z M 32.478046,3.212899 C 31.83872,3.35545 30.468978,3.021271 30.522724,4.017333 c -0.153066,0.951473 1.001736,0.0084 1.530921,0.112201 0.701846,-0.07327 1.710297,-0.05734 1.99654,0.727327 0.174575,1.052501 -1.227212,0.402038 -1.837139,0.694747 -0.996071,0.09102 -2.155836,0.680376 -2.219204,1.801023 -0.147918,1.103215 0.758253,2.235243 1.909329,2.172302 0.780462,0.151097 1.757244,-0.583619 2.18709,-0.693631 -0.342005,0.814461 1.426891,0.762288 0.996486,-0.075 -0.03395,-1.410695 0.09441,-2.837608 -0.08715,-4.237248 C 34.664798,3.459355 33.464183,3.167251 32.478044,3.2129 Z m 11.404296,0.0059 c -1.504029,-0.1101 -2.896586,1.182736 -2.926571,2.687182 -0.176355,1.346973 0.370407,3.009517 1.799543,3.420825 1.006432,0.331935 2.126029,0.140974 3.048904,-0.346288 0,-0.370443 0,-0.740885 0,-1.111328 C 44.92866,8.497487 43.615859,9.003733 42.669548,8.234348 41.817468,7.402856 41.79671,5.973359 42.296661,4.953214 42.859892,3.853682 44.354119,3.932664 45.266704,4.515 45.797582,5.008321 45.862768,4.730534 45.804218,4.189913 46.002944,3.532111 45.205541,3.487446 44.749673,3.325198 44.466104,3.256018 44.1745,3.216812 43.882342,3.218799 Z m 63.195318,0 c -1.50374,-0.109716 -2.89438,1.183882 -2.92622,2.687075 -0.17586,1.346872 0.37216,3.007709 1.79939,3.421001 1.00705,0.332174 2.12691,0.140147 3.05065,-0.346357 0,-0.370443 0,-0.740885 0,-1.111328 -0.85579,0.602843 -2.08812,1.11006 -3.04591,0.433796 -0.97471,-0.825288 -0.99108,-2.4035 -0.39943,-3.455619 0.65696,-1.063404 2.14404,-0.856747 3.04678,-0.254061 0.55917,0.574537 0.36898,-0.179964 0.39856,-0.553388 0.0839,-0.665216 -0.97239,-0.606427 -1.42416,-0.786129 -0.1654,-0.02376 -0.33253,-0.03607 -0.49966,-0.03499 z M 8.7807805,3.357471 c 0.04122,1.588588 -0.09266,3.189826 0.08835,4.769773 0.2882975,1.277783 1.9188885,1.782465 2.9848915,1.142565 0.570565,-0.314218 0.986078,-0.69488 1.039564,0.10363 0.612721,0.09893 1.075923,-0.03721 0.904769,-0.715925 0,-1.766681 0,-3.533362 0,-5.300043 -0.336589,0 -0.673177,0 -1.009766,0 0,1.49349 0,2.986979 0,4.480469 C 12.049818,8.472357 10.472687,9.063989 9.935767,7.91136 9.659305,7.011411 9.836127,6.052926 9.790541,5.123616 c 0,-0.588714 0,-1.177427 0,-1.766141 -0.336588,0 -0.673175,0 -1.0097625,0 z m 51.8320305,0 c 0,2 0,4 0,6 0.336589,0 0.673177,0 1.009766,0 0,-1.419937 0,-2.839875 0,-4.259812 C 62.305908,4.248182 63.623484,4.470105 64.373218,4.285654 64.662142,3.202819 63.474485,3.180188 62.769621,3.532115 62.33026,3.657729 61.329158,4.669937 61.650752,3.548925 61.578242,3.173842 60.901187,3.422475 60.612811,3.357471 Z m 16.503907,0 c 0.04121,1.588688 -0.09266,3.190025 0.08837,4.770072 0.288873,1.277581 1.919942,1.782057 2.986002,1.1425 0.570429,-0.314472 0.984752,-0.694831 1.038441,0.103396 0.612721,0.09893 1.075923,-0.03721 0.904769,-0.715925 0,-1.766681 0,-3.533362 0,-5.300043 -0.336589,0 -0.673177,0 -1.009766,0 0,1.49349 0,2.986979 0,4.480469 -0.737676,0.635545 -2.315168,1.225256 -2.851584,0.0736 -0.275539,-0.900165 -0.09889,-1.858559 -0.144511,-2.787924 0,-0.588714 0,-1.177427 0,-1.766141 -0.337239,0 -0.674478,0 -1.011717,0 z m 13.86914,0 c 0,2 0,4 0,6 0.336587,0 0.673175,0 1.009762,0 0,-2 0,-4 0,-6 -0.336587,0 -0.673175,0 -1.009762,0 z m -34.488281,0.66597 c 0.834454,-0.299054 2.115691,1.166553 1.301584,1.666015 -1.045841,0 -2.091681,0 -3.137522,0 0.03552,-0.931763 0.895214,-1.740889 1.835938,-1.666015 z m 39.843754,0.03711 c 1.27816,-0.08268 1.86571,1.379182 1.72663,2.457497 0.1044,1.157321 -0.86159,2.466524 -2.11858,2.102129 -1.08783,-0.246126 -1.39757,-1.435427 -1.33929,-2.408618 -0.0443,-0.944333 0.47196,-2.10084 1.54394,-2.143186 z m 16.300779,0 c 1.27817,-0.08269 1.86571,1.379181 1.72663,2.457497 0.10438,1.157271 -0.86148,2.466417 -2.11844,2.102171 -1.08845,-0.245686 -1.39611,-1.435626 -1.33748,-2.408502 -0.0438,-0.943654 0.47077,-2.100327 1.54223,-2.143379 z m -26.097658,0.05469 c 0.586064,0.02158 1.671157,0.05379 1.433594,0.922208 0,0.947805 0,1.895609 0,2.843414 C 87.206225,8.596336 85.56361,8.983149 85.022883,7.812673 84.602816,6.825616 84.604605,5.534304 85.26489,4.653333 85.583832,4.295926 86.065339,4.090903 86.544452,4.115238 Z M 34.085468,6.210945 c 0,0.55664 0,1.113281 0,1.669921 -0.771631,0.679272 -2.403138,1.171243 -2.999156,0.05689 -0.341792,-1.047058 0.799111,-1.661463 1.692306,-1.626694 0.434258,-0.04959 0.871322,-0.06576 1.30685,-0.100121 z m 66.841792,1.615234 c 0,0.510417 0,1.020833 0,1.53125 0.42774,0 0.85547,0 1.28321,0 0,-0.510417 0,-1.020833 0,-1.53125 -0.42774,0 -0.85547,0 -1.28321,0 z" />
</g></svg>
