<?xml version="1.0" encoding="UTF-8" standalone="no"?>
<svg
   width="305.35287"
   height="315.35287"
   viewBox="0 0 305.35286 315.3529"
   version="1.1"
   id="svg2216"
   inkscape:version="1.2.2 (b0a8486541, 2022-12-01)"
   sodipodi:docname="a.svg"
   xmlns:inkscape="http://www.inkscape.org/namespaces/inkscape"
   xmlns:sodipodi="http://sodipodi.sourceforge.net/DTD/sodipodi-0.dtd"
   xmlns="http://www.w3.org/2000/svg"
   xmlns:svg="http://www.w3.org/2000/svg"
   xmlns:rdf="http://www.w3.org/1999/02/22-rdf-syntax-ns#"
   xmlns:cc="http://creativecommons.org/ns#"
   xmlns:dc="http://purl.org/dc/elements/1.1/">
  <defs
     id="defs2210" />
  <sodipodi:namedview
     id="base"
     pagecolor="#ffffff"
     bordercolor="#666666"
     borderopacity="1.0"
     inkscape:pageopacity="0.0"
     inkscape:pageshadow="2"
     inkscape:zoom="1.3598535"
     inkscape:cx="250.76231"
     inkscape:cy="168.03281"
     inkscape:document-units="px"
     inkscape:current-layer="layer1"
     showgrid="false"
     units="px"
     inkscape:window-width="1920"
     inkscape:window-height="1026"
     inkscape:window-x="0"
     inkscape:window-y="0"
     inkscape:window-maximized="1"
     fit-margin-top="10"
     fit-margin-left="10"
     fit-margin-bottom="20"
     fit-margin-right="10"
     inkscape:showpageshadow="false"
     inkscape:document-rotation="0"
     lock-margins="false"
     inkscape:pagecheckerboard="0"
     inkscape:deskcolor="#d1d1d1" />
  <metadata
     id="metadata2213">
    <rdf:RDF>
      <cc:Work
         rdf:about="">
        <dc:format>image/svg+xml</dc:format>
        <dc:type
           rdf:resource="http://purl.org/dc/dcmitype/StillImage" />
      </cc:Work>
    </rdf:RDF>
  </metadata>
  <g
     inkscape:label="Layer 1"
     inkscape:groupmode="layer"
     id="layer1"
     transform="translate(90.792198,-23.029976)">
    <path
       id="rect842"
       style="opacity:1;fill:#eeddbb;fill-opacity:1;stroke:#111111;stroke-width:1.5;stroke-linecap:round;stroke-linejoin:round;stroke-miterlimit:4;stroke-dasharray:none;stroke-dashoffset:0;stroke-opacity:1;paint-order:stroke fill markers"
       d="m -70.481651,33.779976 c -5.296154,0 -9.560547,4.264393 -9.560547,9.560547 V 308.07294 c 0,5.29616 4.264393,9.56055 9.560547,9.56055 H 194.25077 c 5.29615,0 9.56055,-4.26439 9.56055,-9.56055 V 43.340523 c 0,-5.296154 -4.2644,-9.560547 -9.56055,-9.560547 z M 178.89921,252.49091 c 2.34731,0.036 4.0612,2.97939 2.12695,7.09766 -1.4361,3.05763 -2.48725,6.26738 -3.50195,9.48242 -0.70371,2.55939 -0.45528,2.27017 -4.60352,-0.0605 -2.84247,0.0735 -3.07316,0.22927 -2.61718,-1.41015 -0.01,-0.005 -0.0174,-0.0105 -0.0273,-0.0156 -0.11551,-0.0595 1.04648,-3.55339 1.08008,-3.66015 0.16722,-0.55268 0.33472,-1.10552 0.50195,-1.65821 0.25313,-0.8366 0.57827,-1.53751 0.94922,-2.11914 0.55149,-1.42674 1.15282,-2.8334 1.83399,-4.20703 1.21281,-2.44574 2.84942,-3.47084 4.25781,-3.44922 z" />
    <g
       aria-label="A"
       style="font-style:normal;font-variant:normal;font-weight:bold;font-stretch:normal;font-size:76.5333px;line-height:1.25;font-family:'Open Sans';-inkscape-font-specification:'Open Sans, Bold';font-variant-ligatures:normal;font-variant-caps:normal;font-variant-numeric:normal;font-feature-settings:normal;text-align:start;letter-spacing:0px;word-spacing:0px;writing-mode:lr-tb;text-anchor:start;fill:#000000;fill-opacity:1;stroke:none"
       id="text828">
      <path
         d="M 110.0776,253.3327 93.443484,207.07619 H 29.755334 L 13.463017,253.3327 H -15.24792 L 47.073042,86.080102 H 76.695437 L 139.0164,253.3327 Z M 86.26575,183.60614 70.657026,138.26109 q -1.708984,-4.55729 -4.785156,-14.35547 -2.96224,-9.79817 -4.101563,-14.35547 -3.076171,14.01368 -9.00065,30.64779 l -15.039063,43.4082 z"
         style="font-style:normal;font-variant:normal;font-weight:600;font-stretch:normal;font-size:233.333px;font-family:'Open Sans';-inkscape-font-specification:'Open Sans Semi-Bold'"
         id="path817" />
    </g>
    <g
       aria-label="1"
       transform="scale(1.1194341,0.89330851)"
       style="font-style:normal;font-variant:normal;font-weight:bold;font-stretch:normal;font-size:68.3679px;line-height:1.25;font-family:'Open Sans';-inkscape-font-specification:'Open Sans, Bold';font-variant-ligatures:normal;font-variant-caps:normal;font-variant-numeric:normal;font-feature-settings:normal;text-align:start;letter-spacing:0px;word-spacing:0px;writing-mode:lr-tb;text-anchor:start;fill:#000000;fill-opacity:1;stroke:none;stroke-width:0.893309"
       id="text836">
      <path
         id="path820"
         style="font-style:normal;font-variant:normal;font-weight:600;font-stretch:normal;font-family:'Open Sans';-inkscape-font-specification:'Open Sans Semi-Bold';stroke-width:0.893309"
         d="m 156.16044,277.37335 -14.35575,11.28399 3.93963,4.97404 c 4.25074,-3.44955 6.74355,-5.49837 7.47797,-6.14377 0.75667,-0.6454 1.39164,-1.23467 1.90351,-1.76879 -0.0864,1.06936 -0.15093,2.33082 -0.19541,3.76716 0.33632,-1.00459 0.69109,-1.99949 1.07825,-2.97787 1.08343,-2.73784 2.54542,-3.88538 3.80354,-3.86117 2.09687,0.0403 3.62791,3.33523 1.90003,7.94535 -1.28288,3.42282 -2.22189,7.01593 -3.12833,10.61495 -0.60356,2.75082 -0.46057,2.53858 -3.72502,0.20989 v 24.76311 h 7.84436 v -48.80689 z" />
    </g>
    <path
       style="fill:#eeddbb;fill-opacity:1;stroke-width:0.735373"
       d=""
       id="path581"
       transform="translate(-90.792198,23.029976)" />
    <path
       style="fill:#eeddbb;fill-opacity:1;stroke-width:0.735373"
       d="m 264.17895,245.14767 c -1.94587,-0.82191 -2.26508,-1.25129 -1.70568,-2.29433 0.3785,-0.70576 1.43644,-3.19209 2.35098,-5.52518 0.91454,-2.33309 2.24888,-4.77238 2.9652,-5.42064 1.55105,-1.40368 3.56188,-0.84054 3.56685,0.9989 0.004,1.38299 -3.61223,12.01793 -4.35092,12.79649 -0.2379,0.25074 -1.50979,8.8e-4 -2.82643,-0.55524 z"
       id="path583"
       transform="translate(-90.792198,23.029976)" />
    <path
       style="fill:#eeddbb;fill-opacity:1;stroke-width:0.735373"
       d="m 252.0031,236.93128 -1.89391,-1.9795 7.97301,-4.96377 c 6.83296,-4.25401 8.45691,-4.96377 11.35716,-4.96377 h 3.38415 v 3.08857 c 0,2.40222 -0.1961,2.89247 -0.88245,2.20612 -1.38031,-1.38031 -4.06232,-1.03869 -5.70727,0.72696 -0.82466,0.88517 -1.49939,1.37147 -1.49939,1.08065 0,-0.29082 -2.43842,1.11667 -5.4187,3.12774 l -5.4187,3.6565 z"
       id="path585"
       transform="translate(-90.792198,23.029976)" />
    <path
       style="fill:#eeddbb;fill-opacity:1;stroke-width:0.735373"
       d="m 15.582432,292.65974 c -4.87244,-2.97065 -4.551947,6.90539 -4.550689,-140.23 0.0011,-125.793902 0.07697,-133.829514 1.286903,-136.251527 0.73559,-1.472486 2.387081,-3.123977 3.859567,-3.859567 2.422013,-1.209931 10.457625,-1.285828 136.251527,-1.286903 147.13539,-0.0013 137.25935,-0.321751 140.23,4.550689 1.47423,2.418033 1.48411,3.327841 1.48684,136.860208 0.003,148.50734 0.37574,137.21413 -4.62903,140.26571 -2.31234,1.40992 -4.75068,1.43548 -136.92758,1.43548 -133.68258,0 -134.589435,-0.01 -137.007538,-1.48409 z M 273.55888,246.35007 v -22.0612 h -4.00609 c -3.6292,0 -4.68427,0.42327 -11.21445,4.49902 -9.80415,6.11917 -9.53427,5.77058 -6.63968,8.57611 l 2.42063,2.34617 4.93987,-3.3139 c 2.74685,-1.84272 4.9397,-2.89895 4.9395,-2.37919 -2.1e-4,0.51408 -0.61689,2.58929 -1.37041,4.61157 -0.75353,2.02227 -1.58696,4.58689 -1.85208,5.69914 -0.42869,1.79849 -0.27704,2.02228 1.37041,2.02228 h 1.85245 v 11.0306 11.0306 h 4.77992 4.77993 z m -160.85087,-38.79868 8.10375,-22.98815 31.65752,0.19157 31.65752,0.19158 8.20234,22.79658 8.20232,22.79657 14.82019,0.19907 c 8.15112,0.10949 14.81016,-0.056 14.79788,-0.36768 -0.0123,-0.31172 -14.02982,-38.12596 -31.15009,-84.03164 L 167.87169,62.87442 152.77755,62.675913 c -13.8672,-0.18237 -15.13497,-0.09271 -15.59652,1.10306 -0.27632,0.715862 -14.19124,38.033467 -30.92206,82.928007 -16.730811,44.89454 -30.64477,82.21252 -30.9199,82.92884 -0.470043,1.22378 0.398066,1.29036 14.382477,1.10306 l 14.882713,-0.19934 z"
       id="path587"
       transform="translate(-90.792198,23.029976)" />
    <rect
       style="fill:#eeddbb;fill-opacity:1"
       id="rect641"
       width="44.121727"
       height="69.124016"
       x="147.45827"
       y="234.81078" />
  </g>
</svg>
